# xmcd CD database file
#
# Track frame offsets:
#	150
#	15991
#	36070
#	64237
#	84670
#	115393
#	158840
#	195416
#	232712
#	261596
#	288355
#	311651
#
# Disc length: 4498 seconds
#
# Revision: 0
# Processed by: cddbd v1.5.2PL0 Copyright (c) Steve Scherf et al.
# Submitted via: Feurio! 1.68 - http://www.feurio.com
#
DISCID=9a11900c
DTITLE=Caroline Aiken - Music Star Dec 15 2007 1
DYEAR=1900
DGENRE=
TTITLE0=Intro
TTITLE1=Love Ain't Going Nowhere
TTITLE2=Die Happy
TTITLE3=Haul Off and Kiss Me
TTITLE4=Come See Me Baby
TTITLE5=Left Wet
TTITLE6=Speed and Steel > Dry Spell
TTITLE7=Dixie Chicken
TTITLE8=Fourty Thousand Headmen
TTITLE9=Inside Out
TTITLE10=Fragile
TTITLE11=Day By Day
EXTD=
EXTT0=
EXTT1=
EXTT2=
EXTT3=
EXTT4=
EXTT5=
EXTT6=
EXTT7=
EXTT8=
EXTT9=
EXTT10=
EXTT11=
PLAYORDER=
